<svg xmlns="http://www.w3.org/2000/svg" width="149" height="77" viewBox="0 0 149 77">
    <g fill="none" fill-rule="evenodd">
        <g fill="#5DC6C8" fill-rule="nonzero" opacity=".2">
            <path d="M136.938 75.928c0-8.89-1.845-17.279-5.25-24.879a19.401 19.401 0 0 0 1.915-8.389c0-10.683-8.585-19.286-19.086-19.286-1.987 0-3.902.286-5.676.86a60.036 60.036 0 0 0-32.496-9.536c-1.49 0-2.98.072-4.4.144a15.379 15.379 0 0 0-9.365-3.155c-6.67 0-12.346 4.23-14.616 10.11-4.612 2.437-8.87 5.52-12.63 9.033a16.52 16.52 0 0 0-3.831-.43c-9.579 0-17.313 7.815-17.313 17.494 0 4.23 1.49 8.102 3.903 11.114-1.561 5.377-2.342 11.041-2.342 16.92h121.187z"/>
            <path d="M120.335 75.928c0-24.592-19.725-44.524-44.061-44.524-24.337 0-44.062 19.932-44.062 44.524h88.123z"/>
            <ellipse cx="139.634" cy="52.555" rx="3.477" ry="3.513"/>
            <ellipse cx="89.542" cy="9.034" rx="5.321" ry="5.377"/>
            <ellipse cx="38.74" cy="22.155" rx="2.27" ry="2.294"/>
            <ellipse cx="110.473" cy="17.925" rx="2.27" ry="2.294"/>
            <ellipse cx="60.239" cy="2.366" rx="2.27" ry="2.294"/>
            <ellipse cx="138.357" cy="61.015" rx="1" ry="1"/>
            <ellipse cx="109.409" cy="1.649" rx="1" ry="1"/>
            <ellipse cx="39.662" cy="5.234" rx="1" ry="1"/>
            <ellipse cx="1.348" cy="25.811" rx="1.206" ry="1.219"/>
            <ellipse cx="147.652" cy="34.845" rx="1.206" ry="1.219"/>
            <ellipse cx="20.86" cy="20.864" rx="5.18" ry="5.234"/>
            <ellipse cx="5.676" cy="58.792" rx="1.206" ry="1.219"/>
            <ellipse cx="136.158" cy="22.155" rx="4.967" ry="5.019"/>
            <ellipse cx="5.676" cy="44.955" rx="4.896" ry="4.947"/>
        </g>
        <path fill="#FFF" fill-rule="nonzero" d="M133.487 74.93H105.14V49.722h31.426V71.84c0 1.685-1.4 3.09-3.08 3.09z"/>
        <path fill="#249393" fill-rule="nonzero" d="M136.566 72.402c0-3.23-4.76-2.387-4.76-2.387V46.07h2.38c1.33 0 2.38 1.053 2.38 2.388V72.402z"/>
        <g fill-rule="nonzero">
            <path fill="#BD83FF" d="M131.807 69.944c0 .11.108 0 .216 0h-.216z"/>
            <path fill="#5DC6C8" d="M134.186 46h-2.1c1.33 0 2.38 1.053 2.38 2.387v21.628c1.12.21 2.1.842 2.1 2.387V48.458c0-1.335-1.05-2.458-2.38-2.458z"/>
        </g>
        <path stroke="#303030" stroke-width="1.5" d="M136.566 68.26V48.527a2.364 2.364 0 0 0-2.38-2.388h-2.38v23.945s4.76-.773 4.76 2.387V68.26z"/>
        <path stroke="#303030" stroke-width="1.5" d="M129.707 49.722H105.14V74.93h28.767c1.47 0 2.66-1.194 2.66-2.668V68.47"/>
        <path stroke="#249393" stroke-width="1.5" d="M126.907 66.714h2.38v2.387h-2.38z"/>
        <path stroke="#303030" stroke-width="1.5" d="M125.228 69.102h-1.05M129.217 72.542h-1.05M126.277 72.542h-3.85M125.228 66.714h-1.96M121.938 69.102h-1.05M118.718 69.102h-1.05"/>
        <path stroke="#249393" stroke-width="1.5" d="M128.167 58.92v-1.545l-1.26-.35a6.678 6.678 0 0 0-.63-1.475l.77-1.264-1.05-1.054-1.26.773c-.42-.281-.91-.492-1.47-.632l-.35-1.404h-1.539l-.35 1.404c-.49.14-.98.351-1.4.562l-1.19-.703-1.05 1.054.7 1.193a4.69 4.69 0 0 0-.63 1.475l-1.26.421v1.545l1.26.281c.14.491.35.983.63 1.475l-.77 1.193 1.05 1.054 1.26-.703c.42.281.91.492 1.47.632l.35 1.475h1.54l.35-1.475c.49-.14.98-.35 1.47-.632l1.26.773 1.05-1.054-.77-1.263c.28-.422.49-.913.63-1.475l1.19-.28zm-6.159 1.334c-1.19 0-2.17-.983-2.17-2.177 0-1.193.98-2.176 2.17-2.176s2.17.983 2.17 2.176c0 1.194-.98 2.177-2.17 2.177z"/>
        <path fill="#FFF" fill-rule="nonzero" d="M45.857 41.288H16.214c-.071 0-.143.072-.143.144v33.365H46V41.432c0-.072-.071-.144-.143-.144z"/>
        <path fill="#249393" fill-rule="nonzero" d="M45.857 41.288H16.214c-.071 0-.143.072-.143.144v3.676H46v-3.676c0-.072-.071-.144-.143-.144z"/>
        <path fill="#5DC6C8" fill-rule="nonzero" d="M40 74.797v-1.009l-3.143-.432a6.144 6.144 0 0 0-.786-1.874L38 68.96l-1.357-1.37-2.5 1.874a6.033 6.033 0 0 0-1.857-.792l-.572-3.171h-2l-.428 3.17a6.033 6.033 0 0 0-1.857.793l-2.5-1.945-1.429 1.369 1.857 2.594a6.144 6.144 0 0 0-.786 1.874l-3.142.432v1.009h6.428a2.801 2.801 0 0 1 2.786-2.81c1.5 0 2.786 1.297 2.786 2.81H40z"/>
        <path stroke="#303030" stroke-width="1.5" d="M16 74.797V41.432c0-.072.071-.144.143-.144h29.643c.071 0 .143.072.143.144v33.365M45.929 45.54H16"/>
        <path stroke="#FFF" stroke-width="1.5" d="M20.929 43.234h-2M24.071 43.234h-2M27.286 43.234h-2"/>
        <path stroke="#303030" stroke-width="1.5" d="M19.714 48.422v9.585H42M43.214 74.797c0-3.459-1.357-6.558-3.643-8.792-2.214-2.233-5.357-3.675-8.714-3.675-3.428 0-6.5 1.37-8.714 3.675-2.214 2.234-3.643 5.405-3.643 8.792"/>
        <g stroke="#303030" stroke-width="1.5">
            <path d="M40 74.797v-1.009l-3.143-.432a6.144 6.144 0 0 0-.786-1.874L38 68.96l-1.357-1.37-2.5 1.874a6.033 6.033 0 0 0-1.857-.792l-.572-3.171h-2l-.428 3.17a6.033 6.033 0 0 0-1.857.793l-2.5-1.945-1.429 1.369 1.857 2.594a6.144 6.144 0 0 0-.786 1.874l-3.142.432v1.009"/>
            <path d="M33.571 74.797a2.801 2.801 0 0 0-2.785-2.81c-1.5 0-2.786 1.297-2.786 2.81"/>
        </g>
        <path stroke="#303030" stroke-linecap="round" stroke-width="1.5" d="M115 22H96M38 18h22M27 32H6M29 32h2M90 22h2"/>
        <g stroke="#FFF" stroke-linecap="round" stroke-width="1.5">
            <path d="M37.85 32.5h-2.7M36.5 33.76v-2.58"/>
        </g>
        <g stroke="#FFF" stroke-linecap="round" stroke-width="1.5">
            <path d="M125 16.5h2.94M126.47 17.76v-2.58"/>
        </g>
        <g stroke="#FFF" stroke-linecap="round" stroke-width="1.5">
            <path d="M141 63.5h2.94M142.47 64.76v-2.58"/>
        </g>
        <g stroke="#FFF" stroke-linecap="round" stroke-width="1.5">
            <path d="M76 23.5h2.94M77.47 24.76v-2.58"/>
        </g>
        <g stroke="#FFF" stroke-linecap="round" stroke-width="1.5">
            <path d="M62.44 16.44l2.078 2.078M62.588 18.37l1.824-1.825"/>
        </g>
        <g stroke="#FFF" stroke-linecap="round" stroke-width="1.5">
            <path d="M22.14 21.94l1.8-1.8M23.94 21.94l-1.8-1.8"/>
        </g>
        <path fill="#FFF" fill-rule="nonzero" d="M39 11.556l-.957.444L37 11.556v-1.037L38.043 10l.957.519zM108 6.481L106.957 7 106 6.481V5.52l.957-.519 1.043.519zM77 10.689L74.962 12 73 10.689v-2.46L74.962 7 77 8.23zM11 54.25l-.971.75L9 54.25v-1.5l1.029-.75.971.75zM145 34.25l-.971.75-1.029-.75v-1.5l1.029-.75.971.75z"/>
        <path stroke="#303030" stroke-linecap="round" stroke-width="1.5" d="M139 41h-13"/>
        <path fill="#FFF" fill-rule="nonzero" d="M61 65h29v10H61z"/>
        <path fill="#5DC6C8" fill-rule="nonzero" d="M61 65h29v5H61z"/>
        <path fill="#FFF" fill-rule="nonzero" d="M103.648 29c.783 0 1.352.645 1.352 1.362v34.276c0 .788-.64 1.362-1.352 1.362H47.352A1.357 1.357 0 0 1 46 64.638V30.434c0-.789.64-1.362 1.352-1.362h56.296V29z"/>
        <path fill="#FFF" fill-rule="nonzero" d="M103.65 29c.781 0 1.35.63 1.35 1.33V57H46V30.4c0-.77.64-1.33 1.35-1.33h56.3V29z"/>
        <g fill="#5DC6C8" fill-rule="nonzero" opacity=".6">
            <path d="M57 58h7.542L93 29h-7.542zM65.398 29L46 49.032V58h6.817L81 29z"/>
        </g>
        <path stroke="#303030" stroke-width="1.5" d="M103.648 29c.783 0 1.352.645 1.352 1.362v34.276c0 .788-.64 1.362-1.352 1.362H47.352A1.357 1.357 0 0 1 46 64.638V30.434c0-.789.64-1.362 1.352-1.362h56.296V29zM61 66v9M90 66v9"/>
        <path stroke="#9130FF" stroke-width="1.5" d="M95 75H56"/>
        <path stroke="#303030" stroke-width="1.5" d="M46 58h59"/>
        <g stroke-width="1.5">
            <g stroke="#303030">
                <path d="M71.16 47.429v-8a.638.638 0 0 0-.638-.643h-4.185a.638.638 0 0 0-.639.643v8M65.84 43.143h5.32M75.63 43.143h5.25a.638.638 0 0 0 .638-.643v-3a.638.638 0 0 0-.639-.643h-4.61a.638.638 0 0 0-.64.643v8M85.207 38.286v9.143M84.072 38.786h2.27M86.342 47.071h-2.27"/>
            </g>
            <path stroke="#303030" d="M60.378 43.071h1.915M56.83 43.071h1.916M53.284 43.071h1.915"/>
            <path stroke="#FFF" d="M95.847 43.071h1.916"/>
            <path stroke="#303030" d="M92.3 43.071h1.916M88.754 43.071h1.915"/>
        </g>
        <g transform="translate(93 54)">
            <path fill="#FFF" fill-rule="nonzero" d="M20.984 11.711V9.147l-2.213-.624c-.214-.901-.571-1.664-1.07-2.426l1.355-2.08-1.855-1.802-2.213 1.248a8.663 8.663 0 0 0-2.498-1.04L11.848.066h-2.64l-.643 2.357c-.928.208-1.713.554-2.498.97L3.925 2.146 2.07 3.948l1.285 2.08a8.158 8.158 0 0 0-1.071 2.426L.07 9.147v2.564l2.213.486c.214.9.57 1.663 1.07 2.426l-1.356 2.01 1.856 1.802 2.213-1.178a8.663 8.663 0 0 0 2.498 1.04l.642 2.495h2.64l.572-2.495c.928-.208 1.713-.555 2.498-1.04l2.212 1.248 1.856-1.803-1.356-2.08c.5-.762.856-1.593 1.07-2.425l2.285-.486z"/>
            <ellipse cx="10.278" cy="10.394" fill="#249393" fill-rule="nonzero" rx="5.353" ry="5.199"/>
            <g stroke-width="1.5">
                <path stroke="#303030" d="M20.912 11.711V9.147L18.7 8.523c-.215-.901-.571-1.664-1.071-2.426l1.356-2.08-1.856-1.802-2.212 1.248a8.663 8.663 0 0 0-2.498-1.04L11.776.066h-2.64l-.643 2.357c-.928.208-1.713.554-2.498.97l-2.14-1.247-1.857 1.802 1.285 2.08a8.158 8.158 0 0 0-1.07 2.426L0 9.147v2.564l2.213.486c.214.9.57 1.663 1.07 2.426l-1.356 2.01 1.856 1.802 2.212-1.178a8.663 8.663 0 0 0 2.498 1.04l.643 2.495h2.64l.571-2.495c.928-.208 1.713-.555 2.498-1.04l2.213 1.248 1.856-1.803-1.356-2.08c.5-.762.856-1.593 1.07-2.425l2.284-.486z"/>
                <path stroke="#249393" d="M10.991 2.977H9.85M15.488 4.78l.785.832M18.129 11.018V9.91M15.488 16.148l.785-.763M9.85 17.95h1.141M5.353 16.148l-.785-.763M2.712 11.018V9.91M5.353 4.78l-.785.762"/>
            </g>
            <g fill="#FFF" fill-rule="nonzero">
                <path d="M5.71 10.325v-.693l2.57-1.178v.762l-1.714.763 1.713.762v.763zM10.991 7.899h.714l-2.212 4.644h-.714zM14.774 9.632v.693l-2.57 1.179v-.763l1.714-.762-1.713-.763v-.693z"/>
            </g>
        </g>
        <g fill-rule="nonzero" opacity=".3">
            <path fill="#6D24BF" d="M56.494 74.562c0 .11 0 .11 0 0z"/>
            <path fill="#249393" d="M56.638 52.03c0-.98-.791-1.75-1.797-1.75h-8.625v14.275c0 1.05.862 1.89 1.94 1.89h8.482V52.029z"/>
        </g>
        <g>
            <path fill="#FFF" fill-rule="nonzero" d="M52.979 74.643c0 .714-.571 1.214-1.213 1.214H39.498a1.203 1.203 0 0 1-1.213-1.214V52.286c0-.715.57-1.215 1.213-1.215h12.268c.713 0 1.213.572 1.213 1.215v22.357z"/>
            <path fill="#FFF" fill-rule="nonzero" d="M38.214 54.857h14.765v17.357H38.214z"/>
            <path fill="#249393" fill-rule="nonzero" d="M51.766 51.071h-1.854c.713 0 1.212.572 1.212 1.215v22.357c0 .714-.57 1.214-1.212 1.214h1.854c.713 0 1.213-.571 1.213-1.214V52.286c0-.643-.571-1.215-1.213-1.215z" opacity=".3"/>
            <path fill="#FFF" fill-rule="nonzero" d="M39.498 51.071h1.854c-.713 0-1.212.572-1.212 1.215v22.357c0 .714.57 1.214 1.212 1.214h-1.854a1.203 1.203 0 0 1-1.213-1.214V52.286c-.071-.643.5-1.215 1.213-1.215z" opacity=".2"/>
            <path stroke="#303030" stroke-width="1.5" d="M52.979 74.643c0 .714-.571 1.214-1.213 1.214H39.498a1.203 1.203 0 0 1-1.213-1.214V52.286c0-.715.57-1.215 1.213-1.215h12.268c.713 0 1.213.572 1.213 1.215v22.357zM38.285 54.857H52.98M43.278 53.071h4.708M38.285 72.214H52.98M40.282 58.071h1.427M43.35 58.071h1.426M46.417 58.071h1.426M49.412 58.071h1.498M40.282 61.143h1.498M44.847 61.143H43.35M46.417 61.143h1.497M49.484 61.143h1.498M40.354 64.214h1.498M44.919 64.214H43.42M47.986 64.214h-1.498M49.555 64.214h1.498M41.923 69.786h-1.427M44.99 69.786h-1.426M48.057 69.786h-1.426"/>
            <path stroke="#9130FF" stroke-width="1.5" d="M51.124 69.786h-1.426"/>
        </g>
        <g>
            <path fill="#5DC6C8" fill-rule="nonzero" d="M82.674 75.922H49.366c-.073 0-.145-.078-.145-.155V69.31c0-.078.072-.155.145-.155h33.308c.072 0 .145.077.145.155v6.456c0 .077-.073.155-.145.155z"/>
            <path fill="#249393" fill-rule="nonzero" d="M82.674 72.889h-33.38c-.073 0-.146-.078-.146-.156v3.034c0 .077.073.155.145.155h33.38c.073 0 .146-.078.146-.155v-3.034c0 .078-.073.156-.145.156z"/>
            <g stroke="#303030" stroke-width="1.5">
                <path d="M82.819 75.611v-6.455c0-.078-.073-.156-.145-.156H49.366c-.073 0-.145.078-.145.156v6.455c0 .078.072.156.145.156h33.308c.072 0 .145-.078.145-.156zM52.414 71.722V69M55.824 71.722V69M59.162 69v2.722M62.5 69v2.722M65.911 69v2.722M69.25 71.722V69M72.587 71.722V69M75.925 69v2.722M79.336 69v2.722"/>
            </g>
        </g>
        <path fill="#5DC6C8" fill-rule="nonzero" d="M117.295 30H97v15h2.607v3.357c0 .286.141.5.353.572.07.071.211.071.282.071.14 0 .281-.071.422-.143L105.456 45H118V30.714a.71.71 0 0 0-.705-.714z" opacity=".3"/>
        <g>
            <path fill="#FFF" fill-rule="nonzero" d="M119.93 44.875h-12.175l-4.926 3.985c-.07.07-.211 0-.211-.072v-3.842h-2.604V31.142h19.705c.07 0 .21.071.21.214v13.519z"/>
            <path fill="#5DC6C8" fill-rule="nonzero" d="M117.537 33.633c0-.071-.07-.214-.211-.214h-17.312V31h19.705c.07 0 .21.071.21.213v13.662h-2.392V33.633z"/>
            <path stroke="#303030" stroke-width="1.5" d="M119.93 31.213c0-.07-.07-.213-.211-.213h-19.705v13.804h2.604v3.842c0 .071.14.142.211.071l4.926-3.984h12.175v-13.52z"/>
            <path stroke="#303030" stroke-width="1.5" d="M114.159 38.471v-1.067l-.915-.214a2.51 2.51 0 0 0-.422-.996l.493-.854-.775-.782-.844.498a2.453 2.453 0 0 0-.985-.427l-.211-.996h-1.056l-.211.996a2.453 2.453 0 0 0-.985.427l-.845-.498-.774.711.493.854a2.51 2.51 0 0 0-.422.996l-.915.285v1.067l.915.214c.07.355.21.711.422.996l-.563.854.774.782.844-.498c.282.214.634.356.986.427l.281.996h1.056l.21-.996c.353-.071.704-.213.986-.427l.844.498.775-.782-.563-.854a2.51 2.51 0 0 0 .422-.996l.985-.214zm-4.293.925c-.844 0-1.478-.711-1.478-1.494s.704-1.494 1.478-1.494c.845 0 1.478.711 1.478 1.494s-.633 1.494-1.478 1.494z"/>
        </g>
        <g stroke="#303030" stroke-linecap="round" stroke-width="1.5">
            <path d="M10.614 75.175h130.264M142.797 75.175h1.919M8.34 75.175H5.071"/>
        </g>
    </g>
</svg>
